<svg width="31" height="37" viewBox="0 0 31 37" fill="none" xmlns="http://www.w3.org/2000/svg">
<path d="M14.1169 23.6321H16.883V28.4081H14.1169V23.6321Z" fill="#FBBE2C"/>
<path d="M13.3033 17.4901H17.6967V23.6321H13.3033V17.4901Z" fill="#FD9E27"/>
<path d="M6.23752 0.0213776H24.7625V11.8464C24.7624 14.3029 23.7865 16.6587 22.0494 18.3957C20.3124 20.1327 17.9565 21.1085 15.5 21.1085C13.0435 21.1085 10.6876 20.1327 8.95055 18.3957C7.21351 16.6587 6.23761 14.3029 6.23752 11.8464V0.0213776Z" fill="#FBBE2C"/>
<path d="M9.84683 28.4081H21.1531V32.6913H9.84683V28.4081Z" fill="#DEECF1"/>
<path d="M13.303 19.2054C13.2296 19.2054 13.1569 19.1916 13.0886 19.1648C8.67073 17.4337 8.20244 14.0733 8.18396 13.9312C8.16423 13.7765 8.20674 13.6204 8.30216 13.497C8.39757 13.3737 8.53807 13.2933 8.69274 13.2736C8.84741 13.2539 9.00358 13.2964 9.12691 13.3918C9.25023 13.4872 9.3306 13.6277 9.35033 13.7824C9.36747 13.9053 9.78705 16.608 13.516 18.0699C13.6436 18.1198 13.7499 18.2128 13.8163 18.3327C13.8827 18.4527 13.9051 18.592 13.8797 18.7267C13.8542 18.8614 13.7825 18.983 13.6768 19.0704C13.5712 19.1578 13.4384 19.2056 13.3013 19.2054H13.303Z" fill="#FDD880"/>
<path d="M15.5 3.48019L17.1417 6.80631L20.8122 7.33978L18.1562 9.92885L18.7831 13.5849L15.5 11.8588L12.2169 13.5849L12.8437 9.92885L10.1878 7.33978L13.8583 6.80631L15.5 3.48019Z" fill="#DEECF1"/>
<path d="M6.28995 12.8431C5.04914 11.8486 4.07616 10.5602 3.45922 9.09455C2.84227 7.62894 2.60087 6.03253 2.75689 4.45004H6.23553V2.56207H1.93485C1.7187 2.56209 1.50909 2.63629 1.34107 2.77228C1.17304 2.90826 1.05678 3.09779 1.0117 3.3092C0.519675 6.19973 1.10975 9.17021 2.66921 11.6532C3.7692 13.3143 5.26925 14.672 7.03136 15.6015C6.64209 14.7262 6.39194 13.7956 6.28995 12.8431Z" fill="#FBBE2C"/>
<path d="M24.71 12.8431C25.9508 11.8486 26.9237 10.5601 27.5406 9.0945C28.1575 7.6289 28.3988 6.0325 28.2428 4.45004H24.7645V2.56207H29.0645C29.2806 2.56209 29.4902 2.63629 29.6582 2.77228C29.8263 2.90826 29.9425 3.09779 29.9876 3.3092C30.4796 6.19973 29.8896 9.17021 28.3301 11.6532C27.2303 13.3142 25.7305 14.6719 23.9686 15.6015C24.3579 14.7262 24.608 13.7956 24.71 12.8431Z" fill="#FD9E27"/>
<path d="M15.5 21.1085C17.9565 21.1085 20.3124 20.1327 22.0494 18.3957C23.7865 16.6587 24.7624 14.3029 24.7625 11.8464V0.0213776H15.5V21.1085Z" fill="#FD9E27"/>
<path d="M15.5 23.6321H16.8831V28.4081H15.5V23.6321Z" fill="#FD9E27"/>
<path d="M15.5 28.4081H21.1532V32.6913H15.5V28.4081Z" fill="#C7E2E7"/>
<path d="M15.5 32.6913V36.3026H24.7625C24.7625 35.3448 24.382 34.4263 23.7047 33.749C23.0275 33.0718 22.1089 32.6913 21.1511 32.6913H15.5Z" fill="#FD9E27"/>
<path d="M15.5 32.6913V36.3026H6.23753C6.23753 35.3448 6.618 34.4263 7.29526 33.749C7.97252 33.0718 8.89107 32.6913 9.84886 32.6913H15.5Z" fill="#FBBE2C"/>
<path d="M18.7831 13.5849L18.1563 9.92885L20.8122 7.33978L17.1417 6.80631L15.5 3.48019V11.8588L18.7831 13.5849Z" fill="#C7E2E7"/>
</svg>
