<svg width="31" height="37" viewBox="0 0 31 37" fill="none" xmlns="http://www.w3.org/2000/svg">
<path d="M14.1169 24.2017H16.883V28.9777H14.1169V24.2017Z" fill="#CC998A"/>
<path d="M13.3033 18.0598H17.6967V24.2017H13.3033V18.0598Z" fill="#B47B6A"/>
<path d="M6.23752 0.591003H24.7625V12.416C24.7624 14.8725 23.7865 17.2284 22.0494 18.9653C20.3124 20.7023 17.9565 21.6781 15.5 21.6781C13.0435 21.6781 10.6876 20.7023 8.95055 18.9653C7.21351 17.2284 6.23761 14.8725 6.23752 12.416V0.591003Z" fill="#CC998A"/>
<path d="M9.84683 28.9777H21.1531V33.2609H9.84683V28.9777Z" fill="#F9ECE8"/>
<path d="M13.303 19.775C13.2296 19.775 13.1569 19.7612 13.0886 19.7344C8.67073 18.0033 8.20244 14.6429 8.18396 14.5008C8.16423 14.3462 8.20674 14.19 8.30216 14.0667C8.39757 13.9433 8.53807 13.863 8.69274 13.8432C8.84741 13.8235 9.00358 13.866 9.12691 13.9614C9.25023 14.0568 9.3306 14.1973 9.35033 14.352C9.36747 14.475 9.78705 17.1776 13.516 18.6396C13.6436 18.6895 13.7499 18.7824 13.8163 18.9023C13.8827 19.0223 13.9051 19.1617 13.8797 19.2964C13.8542 19.4311 13.7825 19.5526 13.6768 19.64C13.5712 19.7275 13.4384 19.7752 13.3013 19.775H13.303Z" fill="#F9ECE8"/>
<path d="M15.5 4.0498L17.1417 7.37592L20.8122 7.90939L18.1562 10.4985L18.7831 14.1545L15.5 12.4284L12.2169 14.1545L12.8437 10.4985L10.1878 7.90939L13.8583 7.37592L15.5 4.0498Z" fill="#F9ECE8"/>
<path d="M6.28995 13.4127C5.04914 12.4182 4.07616 11.1298 3.45922 9.66419C2.84227 8.19858 2.60087 6.60217 2.75689 5.01968H6.23553V3.13171H1.93485C1.7187 3.13173 1.50909 3.20593 1.34107 3.34192C1.17304 3.4779 1.05678 3.66743 1.0117 3.87884C0.519675 6.76937 1.10975 9.73985 2.66921 12.2229C3.7692 13.8839 5.26925 15.2416 7.03136 16.1711C6.64209 15.2959 6.39194 14.3652 6.28995 13.4127Z" fill="#CC998A"/>
<path d="M24.71 13.4127C25.9508 12.4182 26.9237 11.1297 27.5406 9.66412C28.1575 8.19852 28.3988 6.60213 28.2428 5.01967H24.7645V3.1317H29.0645C29.2806 3.13172 29.4902 3.20592 29.6582 3.3419C29.8263 3.47789 29.9425 3.66742 29.9876 3.87882C30.4796 6.76935 29.8896 9.73983 28.3301 12.2228C27.2303 13.8838 25.7305 15.2415 23.9686 16.1711C24.3579 15.2959 24.608 14.3652 24.71 13.4127Z" fill="#B47B6A"/>
<path d="M15.5 21.6781C17.9565 21.6781 20.3124 20.7023 22.0494 18.9653C23.7865 17.2284 24.7624 14.8725 24.7625 12.416V0.591003H15.5V21.6781Z" fill="#B47B6A"/>
<path d="M15.5 24.2017H16.8831V28.9777H15.5V24.2017Z" fill="#B47B6A"/>
<path d="M15.5 28.9777H21.1532V33.2609H15.5V28.9777Z" fill="#E2C0B6"/>
<path d="M15.5 33.2609V36.8723H24.7625C24.7625 35.9145 24.382 34.9959 23.7047 34.3187C23.0275 33.6414 22.1089 33.2609 21.1511 33.2609H15.5Z" fill="#B47B6A"/>
<path d="M15.5 33.2609V36.8723H6.23753C6.23753 35.9145 6.618 34.9959 7.29526 34.3187C7.97252 33.6414 8.89107 33.2609 9.84886 33.2609H15.5Z" fill="#CC998A"/>
<path d="M18.7831 14.1545L18.1563 10.4985L20.8122 7.90939L17.1417 7.37592L15.5 4.0498V12.4284L18.7831 14.1545Z" fill="#E2C0B6"/>
</svg>
