<svg width="31" height="37" viewBox="0 0 31 37" fill="none" xmlns="http://www.w3.org/2000/svg">
<path d="M14.1169 23.9169H16.883V28.6929H14.1169V23.9169Z" fill="#E2E2E2"/>
<path d="M13.3033 17.7749H17.6967V23.9169H13.3033V17.7749Z" fill="#C8C4BF"/>
<path d="M6.23752 0.306183H24.7625V12.1312C24.7624 14.5877 23.7865 16.9435 22.0494 18.6805C20.3124 20.4175 17.9565 21.3933 15.5 21.3933C13.0435 21.3933 10.6876 20.4175 8.95055 18.6805C7.21351 16.9435 6.23761 14.5877 6.23752 12.1312V0.306183Z" fill="#E2E2E2"/>
<path d="M9.84683 28.6929H21.1531V32.9761H9.84683V28.6929Z" fill="#F9F9F9"/>
<path d="M13.303 19.4902C13.2296 19.4902 13.1569 19.4764 13.0886 19.4496C8.67073 17.7185 8.20244 14.3581 8.18396 14.216C8.16423 14.0613 8.20674 13.9052 8.30216 13.7818C8.39757 13.6585 8.53807 13.5781 8.69274 13.5584C8.84741 13.5387 9.00358 13.5812 9.12691 13.6766C9.25023 13.772 9.3306 13.9125 9.35033 14.0672C9.36747 14.1901 9.78705 16.8928 13.516 18.3548C13.6436 18.4046 13.7499 18.4976 13.8163 18.6175C13.8827 18.7375 13.9051 18.8768 13.8797 19.0115C13.8542 19.1462 13.7825 19.2678 13.6768 19.3552C13.5712 19.4426 13.4384 19.4904 13.3013 19.4902H13.303Z" fill="#FFFAEF"/>
<path d="M15.5 3.765L17.1417 7.09112L20.8122 7.62459L18.1562 10.2137L18.7831 13.8697L15.5 12.1436L12.2169 13.8697L12.8437 10.2137L10.1878 7.62459L13.8583 7.09112L15.5 3.765Z" fill="#F9F9F9"/>
<path d="M6.28995 13.1279C5.04914 12.1334 4.07616 10.845 3.45922 9.37935C2.84227 7.91375 2.60087 6.31734 2.75689 4.73485H6.23553V2.84688H1.93485C1.7187 2.84689 1.50909 2.9211 1.34107 3.05708C1.17304 3.19307 1.05678 3.3826 1.0117 3.594C0.519675 6.48453 1.10975 9.45501 2.66921 11.938C3.7692 13.5991 5.26925 14.9568 7.03136 15.8863C6.64209 15.011 6.39194 14.0804 6.28995 13.1279Z" fill="#E2E2E2"/>
<path d="M24.71 13.1279C25.9508 12.1334 26.9237 10.8449 27.5406 9.3793C28.1575 7.9137 28.3988 6.31731 28.2428 4.73485H24.7645V2.84688H29.0645C29.2806 2.84689 29.4902 2.9211 29.6582 3.05708C29.8263 3.19307 29.9425 3.3826 29.9876 3.594C30.4796 6.48453 29.8896 9.45501 28.3301 11.938C27.2303 13.599 25.7305 14.9567 23.9686 15.8863C24.3579 15.011 24.608 14.0804 24.71 13.1279Z" fill="#C8C4BF"/>
<path d="M15.5 21.3933C17.9565 21.3933 20.3124 20.4175 22.0494 18.6805C23.7865 16.9435 24.7624 14.5877 24.7625 12.1312V0.306183H15.5V21.3933Z" fill="#C8C4BF"/>
<path d="M15.5 23.9169H16.8831V28.6929H15.5V23.9169Z" fill="#C8C4BF"/>
<path d="M15.5 28.6929H21.1532V32.9761H15.5V28.6929Z" fill="#DEDCDA"/>
<path d="M15.5 32.9761V36.5874H24.7625C24.7625 35.6296 24.382 34.7111 23.7047 34.0338C23.0275 33.3566 22.1089 32.9761 21.1511 32.9761H15.5Z" fill="#C8C4BF"/>
<path d="M15.5 32.9761V36.5874H6.23753C6.23753 35.6296 6.618 34.7111 7.29526 34.0338C7.97252 33.3566 8.89107 32.9761 9.84886 32.9761H15.5Z" fill="#E2E2E2"/>
<path d="M18.7831 13.8697L18.1563 10.2137L20.8122 7.62459L17.1417 7.09112L15.5 3.765V12.1436L18.7831 13.8697Z" fill="#DEDCDA"/>
</svg>
